#!OML:ASF H:\ManfredETheater\Project 1\Capture day 1\Session 1\subject.ASF
:FULLY-SPECIFIED
:DEGREES
226
root -0.255328 16.98 -41.9292 -171.066 -3.48211 -185.342
lowerback 8.35607 -1.34448 -4.82989
upperback -2.19487 -2.36106 -0.205781
thorax -6.82268 -0.969178 2.82963
lowerneck -20.4516 -0.678511 -1.95186
upperneck 13.8415 -0.283552 -0.32398
head 7.61259 -0.270549 0.173758
rclavicle -1.23246e-014 -8.74653e-015
rhumerus -71.3663 11.2051 -97.5248
rradius 96.7896
rwrist -8.34422
rhand -16.4865 13.9427
rfingers 7.12502
rthumb 9.73075 -15.8125
lclavicle -1.23246e-014 -8.74653e-015
lhumerus -40.6942 -10.0988 101.042
lradius 119.147
lwrist 21.6176
lhand -17.6609 -14.4994
lfingers 7.12502
lthumb 8.59759 15.3055
rfemur -46.4931 -13.2829 15.201
rtibia 77.6203
rfoot -11.4756 -9.23258
rtoes -25.4341
lfemur -12.2321 -4.50851 -30.3863
ltibia 48.7289
lfoot -27.0438 -3.10195
ltoes -7.18175
227
root -0.231489 17.0657 -42.4285 -170.849 -3.07651 -185.439
lowerback 7.99734 -1.53237 -5.16028
upperback -2.38185 -2.62752 -0.0926453
thorax -6.77613 -1.08294 3.15934
lowerneck -20.4525 -0.359317 -1.67353
upperneck 13.9383 0.108577 -0.52737
head 7.64202 -0.0891915 0.109478
rclavicle 2.45499e-014 5.56597e-015
rhumerus -73.0205 11.4165 -97.3018
rradius 97.6929
rwrist -8.61227
rhand -16.2174 14.0917
rfingers 7.12502
rthumb 9.99043 -15.6512
lclavicle 2.45499e-014 5.56597e-015
lhumerus -40.5315 -10.5036 100.669
lradius 121.784
lwrist 23.0644
lhand -17.2774 -14.2058
lfingers 7.12502
lthumb 8.96768 15.5836
rfemur -47.5283 -12.3546 15.5112
rtibia 74.0854
rfoot -11.715 -9.68871
rtoes -25.6447
lfemur -10.0731 -4.2099 -30.3318
ltibia 47.0082
lfoot -24.8342 -3.99168
ltoes -10.1804
228
root -0.203614 17.1549 -42.9332 -170.696 -2.60271 -185.543
lowerback 7.65839 -1.68717 -5.52854
upperback -2.54803 -2.85446 0.00981092
thorax -6.71774 -1.17706 3.49195
lowerneck -20.4676 -0.0626891 -1.4197
upperneck 14.0689 0.47293 -0.70145
head 7.68704 0.0802352 0.0555783
rclavicle 6.06293e-015 5.96354e-015
rhumerus -74.5641 11.4613 -97.0081
rradius 98.506
rwrist -8.81081
rhand -16.0142 14.1534
rfingers 7.12502
rthumb 10.1865 -15.58
lclavicle 6.06293e-015 5.96354e-015
lhumerus -40.5018 -11.0632 100.205
lradius 124.199
lwrist 23.5488
lhand -17.0115 -14.0262
lfingers 7.12502
lthumb 9.22428 15.752
rfemur -48.2317 -11.2847 15.7263
rtibia 70.2392
rfoot -11.9002 -10.1968
rtoes -25.6249
lfemur -7.92119 -3.84475 -30.2395
ltibia 45.2542
lfoot -22.1849 -5.21116
ltoes -12.9374
229
root -0.172863 17.2452 -43.4426 -170.606 -2.07341 -185.649
lowerback 7.34632 -1.81225 -5.90646
upperback -2.69643 -3.04387 0.096097
thorax -6.65692 -1.25343 3.80719
lowerneck -20.5065 0.212209 -1.18537
upperneck 14.242 0.810266 -0.849952
head 7.75171 0.237877 0.0102572
rclavicle -1.32192e-014 -4.77083e-015
rhumerus -76.0065 11.3559 -96.6528
rradius 99.223
rwrist -8.91746
rhand -15.9021 14.1409
rfingers 7.12502
rthumb 10.2946 -15.5871
lclavicle -1.32192e-014 -4.77083e-015
lhumerus -40.5938 -11.751 99.6717
lradius 126.367
lwrist 23.1461
lhand -16.9027 -14.0023
lfingers 7.12502
lthumb 9.32922 15.7712
rfemur -48.6184 -10.1132 15.8501
rtibia 66.1178
rfoot -12.0247 -10.7144
rtoes -25.696
lfemur -5.77521 -3.43234 -30.1118
ltibia 43.4551
lfoot -19.075 -6.68212
ltoes -15.287
